<svg width="321" height="82" viewBox="0 0 321 82" fill="none" xmlns="http://www.w3.org/2000/svg">
<path fill-rule="evenodd" clip-rule="evenodd" d="M37.8142 70.436C53.5768 69.2521 65.9979 56.0828 65.9979 40.0113C65.9979 23.1604 52.3427 9.5 35.4982 9.5C19.7222 9.5 6.7438 21.4822 5.1606 36.8455C12.7993 28.7785 23.6012 24.5798 33.0183 26.9444C33.2447 27.0012 33.4654 27.0665 33.6861 27.1317L33.6861 27.1318L33.6861 27.1318L33.6861 27.1318L33.6863 27.1318L33.8206 27.1715L33.8224 27.1698L33.8263 27.1665C41.2892 21.0989 49.2889 22.7493 47.7794 23.526C41.6114 26.6973 43.186 32.6056 44.7381 35.5969C44.8858 35.845 45.0257 36.0988 45.1631 36.3544C45.1715 36.3681 45.1803 36.3832 45.189 36.3983C45.1991 36.4158 45.2092 36.4332 45.2189 36.4485L45.2117 36.4436C48.5187 42.6694 48.7636 51.0285 45.1525 59.4344C43.3663 63.592 40.8289 67.3121 37.8142 70.436ZM34.2991 70.4995C34.4036 70.2876 34.5061 70.0745 34.6065 69.8601C38.7655 60.9766 38.4652 52.0544 34.6025 45.7401C29.2337 52.7239 22.6037 58.8106 16.4929 63.8763C17.4785 64.6628 18.5138 65.3895 19.5935 66.0509L32.303 51.453L23.357 68.0095C24.2988 68.4188 25.2654 68.7819 26.2538 69.096L34.0808 52.7243C34.8803 54.4839 35.3478 60.3495 31.2968 70.2356C32.2833 70.3715 33.2849 70.4603 34.2991 70.4995ZM14.5964 62.2314C13.6169 61.309 12.6984 60.3224 11.8475 59.2785C15.4152 56.5513 19.7808 53.0097 23.7332 49.2673C22.3514 51.7302 18.692 56.9696 14.5964 62.2314ZM10.8104 57.9314C20.0291 47.6799 25.1266 39.421 25.1266 39.421C25.3765 38.9675 25.5763 38.6298 25.7523 38.3618C25.1188 38.1148 24.467 37.8914 23.7878 37.7055C17.7779 36.0607 11.0874 37.1753 5 40.3265C5.01245 41.5573 5.09775 42.7707 5.2518 43.9625C8.55425 41.9938 14.1542 39.1775 18.0704 38.9946L6.45871 49.3662C6.74843 50.2669 7.07886 51.1494 7.44783 52.0114L20.61 40.52C19.0399 43.1655 14.6807 49.8912 9.56108 56.0723C9.95522 56.7079 10.372 57.328 10.8104 57.9314Z" fill="white"/>
<path d="M83.0488 42.5V17.8394H88.21V38.2446H98.9937V42.5H83.0488ZM109.621 42.876C107.753 42.876 106.146 42.4943 104.802 41.731C103.457 40.9562 102.421 39.8568 101.691 38.4326C100.974 37.0085 100.615 35.3223 100.615 33.374V33.3569C100.615 31.4087 100.974 29.7225 101.691 28.2983C102.421 26.8628 103.44 25.7576 104.75 24.9829C106.072 24.1968 107.627 23.8037 109.416 23.8037C111.205 23.8037 112.749 24.1854 114.047 24.9487C115.358 25.7007 116.366 26.766 117.072 28.1445C117.79 29.5231 118.149 31.1353 118.149 32.981V34.519H103.059V31.3745H115.791L113.415 34.314V32.3999C113.415 31.3289 113.25 30.4346 112.919 29.7168C112.589 28.9876 112.128 28.4408 111.535 28.0762C110.954 27.7116 110.276 27.5293 109.501 27.5293C108.727 27.5293 108.037 27.7173 107.434 28.0933C106.841 28.4692 106.374 29.0218 106.032 29.751C105.702 30.4688 105.537 31.3517 105.537 32.3999V34.3311C105.537 35.3451 105.702 36.2109 106.032 36.9287C106.374 37.6465 106.858 38.1991 107.485 38.5864C108.111 38.9624 108.858 39.1504 109.724 39.1504C110.407 39.1504 111 39.0422 111.501 38.8257C112.002 38.6092 112.412 38.3358 112.731 38.0054C113.05 37.675 113.267 37.3389 113.381 36.9971L113.415 36.8945H117.995L117.944 37.0825C117.807 37.7547 117.539 38.4326 117.141 39.1162C116.742 39.7998 116.201 40.4264 115.517 40.9961C114.845 41.5658 114.019 42.0215 113.039 42.3633C112.071 42.7051 110.931 42.876 109.621 42.876ZM127.905 42.876C125.877 42.876 124.373 42.4487 123.393 41.5942C122.413 40.7397 121.923 39.3327 121.923 37.373V27.9395H119.377V24.1797H121.923V19.7021H126.965V24.1797H130.314V27.9395H126.965V36.8262C126.965 37.6807 127.153 38.2788 127.529 38.6206C127.916 38.951 128.486 39.1162 129.238 39.1162C129.466 39.1162 129.665 39.1105 129.836 39.0991C130.007 39.0763 130.166 39.0535 130.314 39.0308V42.688C130.041 42.7336 129.699 42.7734 129.289 42.8076C128.89 42.8532 128.429 42.876 127.905 42.876ZM132.346 27.29L133.576 17.8394H138.293L135.798 27.29H132.346ZM149.98 42.9272C148.032 42.9272 146.328 42.6424 144.87 42.0728C143.423 41.4917 142.284 40.6657 141.452 39.5947C140.62 38.5124 140.153 37.2135 140.051 35.6982L140.034 35.4248H144.904L144.938 35.6128C145.052 36.2508 145.337 36.8034 145.793 37.2705C146.26 37.7262 146.864 38.0851 147.604 38.3472C148.345 38.5978 149.182 38.7231 150.117 38.7231C151.074 38.7231 151.894 38.5978 152.578 38.3472C153.273 38.0851 153.808 37.7205 154.184 37.2534C154.571 36.7749 154.765 36.2223 154.765 35.5957V35.5786C154.765 34.7469 154.435 34.0975 153.774 33.6304C153.124 33.1519 152.031 32.7531 150.493 32.4341L147.895 31.9214C145.468 31.4315 143.64 30.6055 142.409 29.4434C141.179 28.2812 140.563 26.7716 140.563 24.9146V24.8975C140.563 23.3936 140.968 22.0833 141.777 20.9668C142.586 19.8389 143.697 18.9673 145.109 18.3521C146.522 17.7254 148.14 17.4121 149.963 17.4121C151.865 17.4121 153.506 17.7083 154.885 18.3008C156.275 18.8932 157.357 19.7306 158.132 20.813C158.906 21.8953 159.334 23.1543 159.413 24.5898L159.431 24.9146H154.56L154.543 24.7095C154.452 24.0601 154.207 23.5075 153.808 23.0518C153.409 22.5846 152.879 22.2257 152.219 21.9751C151.569 21.7244 150.817 21.5991 149.963 21.5991C149.086 21.5991 148.328 21.7301 147.69 21.9922C147.052 22.2428 146.562 22.5903 146.22 23.0347C145.89 23.479 145.725 23.9974 145.725 24.5898V24.6069C145.725 25.3817 146.055 26.0083 146.716 26.4868C147.377 26.9653 148.413 27.347 149.826 27.6318L152.441 28.1616C154.161 28.5034 155.574 28.9762 156.679 29.5801C157.784 30.1839 158.599 30.9473 159.123 31.8701C159.658 32.7816 159.926 33.881 159.926 35.1685V35.1855C159.926 36.7692 159.527 38.1421 158.73 39.3042C157.944 40.4549 156.804 41.3493 155.312 41.9873C153.831 42.6139 152.053 42.9272 149.98 42.9272ZM166.127 42.5L161.257 24.1797H166.281L169.05 37.7661H169.152L172.399 24.1797H177.184L180.449 37.7661H180.551L183.337 24.1797H188.259L183.405 42.5H178.09L174.775 29.5459H174.672L171.374 42.5H166.127ZM190.204 42.5V24.1797H195.195V42.5H190.204ZM192.7 21.8213C191.948 21.8213 191.315 21.5649 190.803 21.0522C190.29 20.5396 190.034 19.93 190.034 19.2236C190.034 18.5059 190.29 17.8963 190.803 17.395C191.315 16.8823 191.948 16.626 192.7 16.626C193.452 16.626 194.084 16.8823 194.597 17.395C195.109 17.8963 195.366 18.5059 195.366 19.2236C195.366 19.93 195.109 20.5396 194.597 21.0522C194.084 21.5649 193.452 21.8213 192.7 21.8213ZM199.772 42.5V27.9395H197.277V24.1797H199.772V22.71C199.772 21.5137 199.972 20.5282 200.37 19.7534C200.781 18.9787 201.424 18.4033 202.302 18.0273C203.19 17.6514 204.358 17.4634 205.805 17.4634C206.261 17.4634 206.722 17.4862 207.189 17.5317C207.656 17.5659 208.032 17.6115 208.317 17.6685V20.9668C208.146 20.9326 207.947 20.9098 207.719 20.8984C207.491 20.887 207.263 20.8813 207.036 20.8813C206.215 20.8813 205.611 21.0522 205.224 21.394C204.837 21.7358 204.643 22.2371 204.643 22.8979V24.1797H208.283V27.9395H204.763V42.5H199.772ZM218.09 42.876C216.062 42.876 214.558 42.4487 213.578 41.5942C212.599 40.7397 212.109 39.3327 212.109 37.373V27.9395H209.562V24.1797H212.109V19.7021H217.15V24.1797H220.5V27.9395H217.15V36.8262C217.15 37.6807 217.338 38.2788 217.714 38.6206C218.102 38.951 218.671 39.1162 219.423 39.1162C219.651 39.1162 219.85 39.1105 220.021 39.0991C220.192 39.0763 220.352 39.0535 220.5 39.0308V42.688C220.226 42.7336 219.885 42.7734 219.474 42.8076C219.076 42.8532 218.614 42.876 218.09 42.876ZM230.099 42.5V38.9624L238.815 30.8105C239.886 29.8193 240.695 28.9933 241.242 28.3325C241.789 27.6717 242.159 27.0793 242.353 26.5552C242.558 26.0311 242.66 25.4842 242.66 24.9146V24.8804C242.66 24.2082 242.501 23.6157 242.182 23.103C241.863 22.5789 241.419 22.1688 240.849 21.8726C240.291 21.5763 239.647 21.4282 238.918 21.4282C238.075 21.4282 237.334 21.5991 236.696 21.9409C236.058 22.2713 235.557 22.7327 235.192 23.3252C234.828 23.9062 234.634 24.5671 234.611 25.3076L234.594 25.4614H229.809V25.3247C229.809 23.7752 230.202 22.408 230.988 21.2231C231.774 20.0269 232.851 19.0926 234.218 18.4204C235.597 17.7482 237.152 17.4121 238.884 17.4121C240.627 17.4121 242.159 17.7197 243.481 18.335C244.802 18.9388 245.833 19.7819 246.574 20.8643C247.315 21.9466 247.685 23.1885 247.685 24.5898V24.624C247.685 25.6152 247.503 26.5381 247.138 27.3926C246.785 28.2357 246.198 29.1357 245.378 30.0928C244.557 31.0384 243.435 32.1663 242.011 33.4766L234.867 39.9878L236.85 36.5186V39.9878L234.885 38.3984H248.027V42.5H230.099ZM260.756 42.9272C258.671 42.9272 256.877 42.4089 255.373 41.3721C253.869 40.3353 252.713 38.8656 251.904 36.9629C251.106 35.0488 250.707 32.7873 250.707 30.1782V30.144C250.707 27.5236 251.106 25.262 251.904 23.3594C252.713 21.4567 253.869 19.9927 255.373 18.9673C256.877 17.9305 258.671 17.4121 260.756 17.4121C262.841 17.4121 264.63 17.9305 266.122 18.9673C267.626 19.9927 268.783 21.4567 269.592 23.3594C270.401 25.262 270.805 27.5236 270.805 30.144V30.1782C270.805 32.7873 270.401 35.0488 269.592 36.9629C268.783 38.8656 267.626 40.3353 266.122 41.3721C264.63 42.4089 262.841 42.9272 260.756 42.9272ZM260.756 38.7915C261.782 38.7915 262.653 38.4497 263.371 37.7661C264.089 37.0825 264.636 36.097 265.012 34.8096C265.399 33.5221 265.593 31.9784 265.593 30.1782V30.144C265.593 28.3325 265.399 26.7887 265.012 25.5127C264.636 24.2253 264.089 23.2454 263.371 22.5732C262.653 21.8896 261.782 21.5479 260.756 21.5479C259.731 21.5479 258.853 21.8896 258.124 22.5732C257.407 23.2454 256.86 24.2253 256.484 25.5127C256.108 26.7887 255.92 28.3325 255.92 30.144V30.1782C255.92 31.9784 256.108 33.5221 256.484 34.8096C256.86 36.097 257.407 37.0825 258.124 37.7661C258.853 38.4497 259.731 38.7915 260.756 38.7915ZM273.708 42.5V38.9624L282.424 30.8105C283.495 29.8193 284.303 28.9933 284.85 28.3325C285.397 27.6717 285.768 27.0793 285.961 26.5552C286.166 26.0311 286.269 25.4842 286.269 24.9146V24.8804C286.269 24.2082 286.109 23.6157 285.79 23.103C285.471 22.5789 285.027 22.1688 284.457 21.8726C283.899 21.5763 283.255 21.4282 282.526 21.4282C281.683 21.4282 280.942 21.5991 280.304 21.9409C279.666 22.2713 279.165 22.7327 278.801 23.3252C278.436 23.9062 278.242 24.5671 278.219 25.3076L278.202 25.4614H273.417V25.3247C273.417 23.7752 273.81 22.408 274.596 21.2231C275.383 20.0269 276.459 19.0926 277.826 18.4204C279.205 17.7482 280.76 17.4121 282.492 17.4121C284.235 17.4121 285.768 17.7197 287.089 18.335C288.411 18.9388 289.442 19.7819 290.182 20.8643C290.923 21.9466 291.293 23.1885 291.293 24.5898V24.624C291.293 25.6152 291.111 26.5381 290.746 27.3926C290.393 28.2357 289.806 29.1357 288.986 30.0928C288.166 31.0384 287.044 32.1663 285.619 33.4766L278.476 39.9878L280.458 36.5186V39.9878L278.493 38.3984H291.635V42.5H273.708ZM303.903 42.9272C302.035 42.9272 300.405 42.6253 299.015 42.0215C297.625 41.4062 296.52 40.5575 295.7 39.4751C294.891 38.3927 294.43 37.1452 294.316 35.7324L294.299 35.5103H299.22L299.255 35.6982C299.334 36.2907 299.568 36.8205 299.955 37.2876C300.354 37.7433 300.884 38.1079 301.545 38.3813C302.217 38.6434 302.997 38.7744 303.886 38.7744C304.775 38.7744 305.544 38.632 306.193 38.3472C306.843 38.0509 307.344 37.6465 307.697 37.1338C308.062 36.6097 308.244 36.0116 308.244 35.3394V35.3052C308.244 34.1203 307.828 33.2145 306.996 32.5879C306.165 31.9613 305.003 31.6479 303.51 31.6479H300.69V27.9736H303.442C304.308 27.9736 305.059 27.8312 305.697 27.5464C306.336 27.2616 306.825 26.8685 307.167 26.3672C307.52 25.8545 307.697 25.2677 307.697 24.6069V24.5728C307.697 23.9006 307.543 23.3309 307.236 22.8638C306.939 22.3853 306.501 22.0207 305.92 21.77C305.35 21.508 304.661 21.377 303.852 21.377C303.054 21.377 302.348 21.508 301.733 21.77C301.117 22.0321 300.628 22.4023 300.263 22.8809C299.898 23.348 299.676 23.9006 299.596 24.5386L299.579 24.6924H294.845L294.863 24.4873C294.976 23.0518 295.415 21.8099 296.178 20.7617C296.953 19.7021 297.996 18.8818 299.306 18.3008C300.616 17.7083 302.131 17.4121 303.852 17.4121C305.629 17.4121 307.167 17.6855 308.466 18.2324C309.776 18.7679 310.79 19.5199 311.508 20.4883C312.226 21.4567 312.585 22.5903 312.585 23.8892V23.9233C312.585 24.9487 312.357 25.8488 311.901 26.6235C311.445 27.3983 310.824 28.0363 310.038 28.5376C309.264 29.0389 308.398 29.3921 307.441 29.5972V29.6997C309.275 29.8706 310.739 30.4631 311.833 31.4771C312.938 32.491 313.49 33.8354 313.49 35.5103V35.5444C313.49 37.0142 313.092 38.3016 312.294 39.4067C311.497 40.5119 310.38 41.3778 308.945 42.0044C307.509 42.6196 305.829 42.9272 303.903 42.9272Z" fill="white"/>
<path d="M82.5098 68.5V56.3811H86.8938C88.0919 56.3811 89.1165 56.619 89.9676 57.0949C90.8186 57.5708 91.4681 58.2567 91.916 59.1525C92.3695 60.0484 92.5963 61.1318 92.5963 62.4027V62.4195C92.5963 63.7017 92.3723 64.7963 91.9244 65.7033C91.4765 66.6104 90.827 67.3046 89.976 67.7861C89.1249 68.262 88.0975 68.5 86.8938 68.5H82.5098ZM84.3994 66.8707H86.6838C87.5292 66.8707 88.2487 66.6971 88.8422 66.35C89.4357 66.0029 89.8892 65.499 90.2027 64.8383C90.5163 64.1776 90.673 63.3798 90.673 62.4447V62.4279C90.673 61.4985 90.5135 60.7035 90.1943 60.0428C89.8808 59.3821 89.4245 58.8782 88.8254 58.5311C88.2319 58.1839 87.518 58.0104 86.6838 58.0104H84.3994V66.8707ZM98.7691 68.6764C97.8789 68.6764 97.1146 68.486 96.4764 68.1053C95.8381 67.7189 95.3454 67.173 94.9982 66.4676C94.6567 65.7621 94.4859 64.9279 94.4859 63.9648V63.9564C94.4859 63.0046 94.6567 62.1732 94.9982 61.4621C95.3398 60.751 95.8241 60.1967 96.4512 59.7992C97.0839 59.4017 97.8229 59.2029 98.6684 59.2029C99.5194 59.2029 100.253 59.3961 100.869 59.7824C101.485 60.1632 101.958 60.6979 102.288 61.3865C102.618 62.0696 102.784 62.8674 102.784 63.7801V64.4184H95.4098V63.1166H101.877L100.995 64.326V63.5953C100.995 62.9458 100.897 62.4083 100.701 61.9828C100.505 61.5517 100.233 61.2326 99.8861 61.0254C99.539 60.8126 99.1387 60.7062 98.6852 60.7062C98.2316 60.7062 97.8257 60.8182 97.4674 61.0422C97.1146 61.2605 96.8347 61.5853 96.6275 62.0164C96.4204 62.4475 96.3168 62.9738 96.3168 63.5953V64.326C96.3168 64.9251 96.4176 65.4374 96.6191 65.8629C96.8207 66.2884 97.1063 66.6132 97.4758 66.8371C97.8509 67.0611 98.2932 67.173 98.8027 67.173C99.1947 67.173 99.5334 67.1199 99.8189 67.0135C100.104 66.9015 100.337 66.7643 100.516 66.602C100.695 66.4396 100.821 66.28 100.894 66.1232L100.919 66.0561H102.683L102.666 66.1316C102.588 66.434 102.45 66.7363 102.254 67.0387C102.059 67.3354 101.801 67.607 101.482 67.8533C101.163 68.0997 100.776 68.2984 100.323 68.4496C99.8693 68.6008 99.3514 68.6764 98.7691 68.6764ZM108.78 68.6764C107.89 68.6764 107.126 68.486 106.487 68.1053C105.849 67.7189 105.356 67.173 105.009 66.4676C104.668 65.7621 104.497 64.9279 104.497 63.9648V63.9564C104.497 63.0046 104.668 62.1732 105.009 61.4621C105.351 60.751 105.835 60.1967 106.462 59.7992C107.095 59.4017 107.834 59.2029 108.679 59.2029C109.53 59.2029 110.264 59.3961 110.88 59.7824C111.496 60.1632 111.969 60.6979 112.299 61.3865C112.629 62.0696 112.795 62.8674 112.795 63.7801V64.4184H105.421V63.1166H111.888L111.006 64.326V63.5953C111.006 62.9458 110.908 62.4083 110.712 61.9828C110.516 61.5517 110.244 61.2326 109.897 61.0254C109.55 60.8126 109.15 60.7062 108.696 60.7062C108.243 60.7062 107.837 60.8182 107.478 61.0422C107.126 61.2605 106.846 61.5853 106.638 62.0164C106.431 62.4475 106.328 62.9738 106.328 63.5953V64.326C106.328 64.9251 106.429 65.4374 106.63 65.8629C106.832 66.2884 107.117 66.6132 107.487 66.8371C107.862 67.0611 108.304 67.173 108.814 67.173C109.206 67.173 109.544 67.1199 109.83 67.0135C110.115 66.9015 110.348 66.7643 110.527 66.602C110.706 66.4396 110.832 66.28 110.905 66.1232L110.93 66.0561H112.694L112.677 66.1316C112.599 66.434 112.461 66.7363 112.265 67.0387C112.069 67.3354 111.812 67.607 111.493 67.8533C111.174 68.0997 110.787 68.2984 110.334 68.4496C109.88 68.6008 109.362 68.6764 108.78 68.6764ZM114.961 71.5402V59.3793H116.784V60.8154H116.927C117.1 60.4851 117.324 60.2023 117.598 59.9672C117.873 59.7264 118.189 59.5417 118.547 59.4129C118.906 59.2841 119.298 59.2197 119.723 59.2197C120.49 59.2197 121.157 59.4157 121.722 59.8076C122.288 60.1939 122.724 60.7398 123.032 61.4453C123.346 62.1452 123.503 62.9738 123.503 63.9312V63.948C123.503 64.9111 123.349 65.7453 123.041 66.4508C122.733 67.1507 122.296 67.6937 121.73 68.0801C121.165 68.4608 120.496 68.6512 119.723 68.6512C119.309 68.6512 118.917 68.5868 118.547 68.458C118.184 68.3236 117.862 68.1389 117.582 67.9037C117.307 67.6686 117.089 67.3858 116.927 67.0555H116.784V71.5402H114.961ZM119.203 67.0891C119.712 67.0891 120.149 66.9631 120.513 66.7111C120.877 66.4592 121.157 66.098 121.353 65.6277C121.549 65.1574 121.646 64.5975 121.646 63.948V63.9312C121.646 63.2762 121.549 62.7163 121.353 62.2516C121.157 61.7812 120.877 61.4201 120.513 61.1682C120.149 60.9162 119.712 60.7902 119.203 60.7902C118.699 60.7902 118.262 60.9162 117.892 61.1682C117.528 61.4201 117.246 61.7812 117.044 62.2516C116.848 62.7163 116.75 63.2762 116.75 63.9312V63.948C116.75 64.5919 116.848 65.149 117.044 65.6193C117.246 66.0896 117.528 66.4536 117.892 66.7111C118.262 66.9631 118.699 67.0891 119.203 67.0891ZM130.566 68.5V56.3811H134.95C136.148 56.3811 137.172 56.619 138.023 57.0949C138.874 57.5708 139.524 58.2567 139.972 59.1525C140.425 60.0484 140.652 61.1318 140.652 62.4027V62.4195C140.652 63.7017 140.428 64.7963 139.98 65.7033C139.532 66.6104 138.883 67.3046 138.032 67.7861C137.181 68.262 136.153 68.5 134.95 68.5H130.566ZM132.455 66.8707H134.74C135.585 66.8707 136.305 66.6971 136.898 66.35C137.492 66.0029 137.945 65.499 138.259 64.8383C138.572 64.1776 138.729 63.3798 138.729 62.4447V62.4279C138.729 61.4985 138.569 60.7035 138.25 60.0428C137.937 59.3821 137.48 58.8782 136.881 58.5311C136.288 58.1839 135.574 58.0104 134.74 58.0104H132.455V66.8707ZM143.021 68.5V59.3793H144.843V68.5H143.021ZM143.936 57.75C143.628 57.75 143.359 57.6408 143.13 57.4225C142.906 57.1985 142.794 56.9298 142.794 56.6162C142.794 56.3027 142.906 56.0367 143.13 55.8184C143.359 55.5944 143.628 55.4824 143.936 55.4824C144.255 55.4824 144.527 55.5944 144.751 55.8184C144.975 56.0367 145.087 56.3027 145.087 56.6162C145.087 56.9298 144.975 57.1985 144.751 57.4225C144.527 57.6408 144.255 57.75 143.936 57.75ZM150 68.5L146.699 59.3793H148.647L150.915 66.6523H151.058L153.317 59.3793H155.24L151.948 68.5H150ZM160.548 68.6764C159.658 68.6764 158.894 68.486 158.255 68.1053C157.617 67.7189 157.124 67.173 156.777 66.4676C156.436 65.7621 156.265 64.9279 156.265 63.9648V63.9564C156.265 63.0046 156.436 62.1732 156.777 61.4621C157.119 60.751 157.603 60.1967 158.23 59.7992C158.863 59.4017 159.602 59.2029 160.447 59.2029C161.298 59.2029 162.032 59.3961 162.648 59.7824C163.264 60.1632 163.737 60.6979 164.067 61.3865C164.397 62.0696 164.563 62.8674 164.563 63.7801V64.4184H157.189V63.1166H163.655L162.774 64.326V63.5953C162.774 62.9458 162.676 62.4083 162.48 61.9828C162.284 61.5517 162.012 61.2326 161.665 61.0254C161.318 60.8126 160.918 60.7062 160.464 60.7062C160.011 60.7062 159.605 60.8182 159.246 61.0422C158.894 61.2605 158.614 61.5853 158.406 62.0164C158.199 62.4475 158.096 62.9738 158.096 63.5953V64.326C158.096 64.9251 158.196 65.4374 158.398 65.8629C158.6 66.2884 158.885 66.6132 159.255 66.8371C159.63 67.0611 160.072 67.173 160.582 67.173C160.974 67.173 161.312 67.1199 161.598 67.0135C161.883 66.9015 162.116 66.7643 162.295 66.602C162.474 66.4396 162.6 66.28 162.673 66.1232L162.698 66.0561H164.462L164.445 66.1316C164.367 66.434 164.229 66.7363 164.033 67.0387C163.837 67.3354 163.58 67.607 163.261 67.8533C162.942 68.0997 162.555 68.2984 162.102 68.4496C161.648 68.6008 161.13 68.6764 160.548 68.6764ZM171.441 68.5V59.3793H173.263V68.5H171.441ZM172.356 57.75C172.048 57.75 171.78 57.6408 171.55 57.4225C171.326 57.1985 171.214 56.9298 171.214 56.6162C171.214 56.3027 171.326 56.0367 171.55 55.8184C171.78 55.5944 172.048 55.4824 172.356 55.4824C172.675 55.4824 172.947 55.5944 173.171 55.8184C173.395 56.0367 173.507 56.3027 173.507 56.6162C173.507 56.9298 173.395 57.1985 173.171 57.4225C172.947 57.6408 172.675 57.75 172.356 57.75ZM175.917 68.5V59.3793H177.74V60.765H177.882C178.101 60.2779 178.428 59.8972 178.865 59.6229C179.307 59.3429 179.859 59.2029 180.52 59.2029C181.544 59.2029 182.328 59.4969 182.871 60.0848C183.414 60.6727 183.686 61.5097 183.686 62.5959V68.5H181.863V63.0242C181.863 62.2684 181.704 61.7029 181.385 61.3277C181.065 60.9526 180.57 60.765 179.898 60.765C179.456 60.765 179.072 60.863 178.747 61.059C178.428 61.2549 178.179 61.5293 178 61.882C177.826 62.2348 177.74 62.6575 177.74 63.1502V68.5H175.917ZM189.665 68.5588C188.669 68.5588 187.947 68.3684 187.499 67.9877C187.056 67.6014 186.835 66.9715 186.835 66.098V60.8238H185.416V59.3793H186.835V57.0865H188.7V59.3793H190.656V60.8238H188.7V65.6613C188.7 66.1484 188.798 66.5012 188.994 66.7195C189.195 66.9379 189.52 67.0471 189.968 67.0471C190.108 67.0471 190.225 67.0443 190.321 67.0387C190.416 67.0331 190.528 67.0247 190.656 67.0135V68.4664C190.511 68.4888 190.354 68.5084 190.186 68.5252C190.024 68.5476 189.85 68.5588 189.665 68.5588ZM196.535 68.6764C195.651 68.6764 194.884 68.486 194.234 68.1053C193.59 67.7245 193.095 67.1814 192.748 66.476C192.401 65.7649 192.227 64.9223 192.227 63.948V63.9312C192.227 62.9514 192.401 62.1088 192.748 61.4033C193.1 60.6979 193.599 60.1548 194.243 59.774C194.886 59.3933 195.651 59.2029 196.535 59.2029C197.431 59.2029 198.198 59.3933 198.837 59.774C199.48 60.1548 199.976 60.6979 200.323 61.4033C200.676 62.1088 200.852 62.9514 200.852 63.9312V63.948C200.852 64.9223 200.679 65.7649 200.331 66.476C199.984 67.1814 199.489 67.7245 198.845 68.1053C198.201 68.486 197.431 68.6764 196.535 68.6764ZM196.535 67.1479C197.056 67.1479 197.498 67.0219 197.862 66.7699C198.226 66.5124 198.503 66.1456 198.694 65.6697C198.89 65.1938 198.988 64.6199 198.988 63.948V63.9312C198.988 63.2538 198.89 62.6771 198.694 62.2012C198.503 61.7253 198.226 61.3613 197.862 61.1094C197.498 60.8574 197.056 60.7314 196.535 60.7314C196.02 60.7314 195.581 60.8574 195.217 61.1094C194.853 61.3613 194.573 61.7253 194.377 62.2012C194.187 62.6771 194.091 63.2538 194.091 63.9312V63.948C194.091 64.6199 194.187 65.1966 194.377 65.6781C194.573 66.154 194.85 66.518 195.208 66.7699C195.572 67.0219 196.015 67.1479 196.535 67.1479ZM211.149 68.5588C210.152 68.5588 209.43 68.3684 208.982 67.9877C208.54 67.6014 208.318 66.9715 208.318 66.098V60.8238H206.899V59.3793H208.318V57.0865H210.183V59.3793H212.14V60.8238H210.183V65.6613C210.183 66.1484 210.281 66.5012 210.477 66.7195C210.678 66.9379 211.003 67.0471 211.451 67.0471C211.591 67.0471 211.709 67.0443 211.804 67.0387C211.899 67.0331 212.011 67.0247 212.14 67.0135V68.4664C211.994 68.4888 211.837 68.5084 211.669 68.5252C211.507 68.5476 211.333 68.5588 211.149 68.5588ZM214.348 68.5V55.81H216.171V60.765H216.314C216.532 60.2779 216.86 59.8972 217.296 59.6229C217.739 59.3429 218.29 59.2029 218.951 59.2029C219.634 59.2029 220.211 59.3373 220.681 59.6061C221.151 59.8692 221.507 60.2527 221.747 60.7566C221.994 61.2605 222.117 61.8736 222.117 62.5959V68.5H220.295V63.0242C220.295 62.2684 220.135 61.7029 219.816 61.3277C219.497 60.9526 219.001 60.765 218.329 60.765C217.887 60.765 217.503 60.863 217.179 61.059C216.86 61.2549 216.61 61.5293 216.431 61.882C216.258 62.2348 216.171 62.6575 216.171 63.1502V68.5H214.348ZM228.491 68.6764C227.601 68.6764 226.837 68.486 226.199 68.1053C225.56 67.7189 225.068 67.173 224.721 66.4676C224.379 65.7621 224.208 64.9279 224.208 63.9648V63.9564C224.208 63.0046 224.379 62.1732 224.721 61.4621C225.062 60.751 225.546 60.1967 226.173 59.7992C226.806 59.4017 227.545 59.2029 228.391 59.2029C229.242 59.2029 229.975 59.3961 230.591 59.7824C231.207 60.1632 231.68 60.6979 232.01 61.3865C232.341 62.0696 232.506 62.8674 232.506 63.7801V64.4184H225.132V63.1166H231.599L230.717 64.326V63.5953C230.717 62.9458 230.619 62.4083 230.423 61.9828C230.227 61.5517 229.956 61.2326 229.608 61.0254C229.261 60.8126 228.861 60.7062 228.407 60.7062C227.954 60.7062 227.548 60.8182 227.19 61.0422C226.837 61.2605 226.557 61.5853 226.35 62.0164C226.143 62.4475 226.039 62.9738 226.039 63.5953V64.326C226.039 64.9251 226.14 65.4374 226.341 65.8629C226.543 66.2884 226.829 66.6132 227.198 66.8371C227.573 67.0611 228.015 67.173 228.525 67.173C228.917 67.173 229.256 67.1199 229.541 67.0135C229.827 66.9015 230.059 66.7643 230.238 66.602C230.417 66.4396 230.543 66.28 230.616 66.1232L230.641 66.0561H232.405L232.388 66.1316C232.31 66.434 232.173 66.7363 231.977 67.0387C231.781 67.3354 231.523 67.607 231.204 67.8533C230.885 68.0997 230.499 68.2984 230.045 68.4496C229.592 68.6008 229.074 68.6764 228.491 68.6764ZM242.399 68.6764C241.711 68.6764 241.134 68.5448 240.669 68.2816C240.204 68.0129 239.854 67.6266 239.619 67.1227C239.39 66.6132 239.275 66.0001 239.275 65.2834V59.3793H241.097V64.8551C241.097 65.6053 241.246 66.168 241.543 66.5432C241.839 66.9183 242.321 67.1059 242.987 67.1059C243.351 67.1059 243.67 67.0527 243.945 66.9463C244.224 66.8343 244.46 66.6747 244.65 66.4676C244.84 66.2604 244.983 66.0113 245.078 65.7201C245.174 65.429 245.221 65.0986 245.221 64.7291V59.3793H247.044V68.5H245.221V67.1227H245.078C244.938 67.4474 244.742 67.7273 244.49 67.9625C244.238 68.1921 243.936 68.3684 243.583 68.4916C243.231 68.6148 242.836 68.6764 242.399 68.6764ZM249.672 68.5V59.3793H251.495V60.765H251.638C251.856 60.2779 252.183 59.8972 252.62 59.6229C253.062 59.3429 253.614 59.2029 254.275 59.2029C255.299 59.2029 256.083 59.4969 256.626 60.0848C257.169 60.6727 257.441 61.5097 257.441 62.5959V68.5H255.618V63.0242C255.618 62.2684 255.459 61.7029 255.14 61.3277C254.821 60.9526 254.325 60.765 253.653 60.765C253.211 60.765 252.827 60.863 252.503 61.059C252.183 61.2549 251.934 61.5293 251.755 61.882C251.582 62.2348 251.495 62.6575 251.495 63.1502V68.5H249.672ZM260.07 68.5V55.81H261.892V68.5H260.07ZM265.806 68.5L262.53 64.2252L263.882 63.0914L268.04 68.5H265.806ZM261.707 65.3674L261.64 63.2258H262.035L265.638 59.3793H267.788L263.664 63.5449L262.967 64.1244L261.707 65.3674ZM269.694 68.5V59.3793H271.517V60.765H271.659C271.878 60.2779 272.205 59.8972 272.642 59.6229C273.084 59.3429 273.636 59.2029 274.296 59.2029C275.321 59.2029 276.105 59.4969 276.648 60.0848C277.191 60.6727 277.463 61.5097 277.463 62.5959V68.5H275.64V63.0242C275.64 62.2684 275.481 61.7029 275.162 61.3277C274.842 60.9526 274.347 60.765 273.675 60.765C273.233 60.765 272.849 60.863 272.524 61.059C272.205 61.2549 271.956 61.5293 271.777 61.882C271.603 62.2348 271.517 62.6575 271.517 63.1502V68.5H269.694ZM283.862 68.6764C282.978 68.6764 282.211 68.486 281.561 68.1053C280.917 67.7245 280.422 67.1814 280.075 66.476C279.727 65.7649 279.554 64.9223 279.554 63.948V63.9312C279.554 62.9514 279.727 62.1088 280.075 61.4033C280.427 60.6979 280.926 60.1548 281.57 59.774C282.213 59.3933 282.978 59.2029 283.862 59.2029C284.758 59.2029 285.525 59.3933 286.163 59.774C286.807 60.1548 287.303 60.6979 287.65 61.4033C288.003 62.1088 288.179 62.9514 288.179 63.9312V63.948C288.179 64.9223 288.006 65.7649 287.658 66.476C287.311 67.1814 286.816 67.7245 286.172 68.1053C285.528 68.486 284.758 68.6764 283.862 68.6764ZM283.862 67.1479C284.383 67.1479 284.825 67.0219 285.189 66.7699C285.553 66.5124 285.83 66.1456 286.021 65.6697C286.217 65.1938 286.315 64.6199 286.315 63.948V63.9312C286.315 63.2538 286.217 62.6771 286.021 62.2012C285.83 61.7253 285.553 61.3613 285.189 61.1094C284.825 60.8574 284.383 60.7314 283.862 60.7314C283.347 60.7314 282.908 60.8574 282.544 61.1094C282.18 61.3613 281.9 61.7253 281.704 62.2012C281.514 62.6771 281.418 63.2538 281.418 63.9312V63.948C281.418 64.6199 281.514 65.1966 281.704 65.6781C281.9 66.154 282.177 66.518 282.535 66.7699C282.899 67.0219 283.342 67.1479 283.862 67.1479ZM291.748 68.5L289.237 59.3793H291.068L292.706 66.4172H292.84L294.721 59.3793H296.452L298.333 66.4172H298.476L300.105 59.3793H301.911L299.408 68.5H297.518L295.637 61.6973H295.494L293.613 68.5H291.748ZM303.775 68.5V59.3793H305.597V60.765H305.74C305.959 60.2779 306.286 59.8972 306.723 59.6229C307.165 59.3429 307.717 59.2029 308.377 59.2029C309.402 59.2029 310.186 59.4969 310.729 60.0848C311.272 60.6727 311.544 61.5097 311.544 62.5959V68.5H309.721V63.0242C309.721 62.2684 309.562 61.7029 309.242 61.3277C308.923 60.9526 308.428 60.765 307.756 60.765C307.314 60.765 306.93 60.863 306.605 61.059C306.286 61.2549 306.037 61.5293 305.858 61.882C305.684 62.2348 305.597 62.6575 305.597 63.1502V68.5H303.775Z" fill="white" fill-opacity="0.5"/>
</svg>
