<?xml version="1.0" encoding="UTF-8" standalone="no"?>
<!DOCTYPE svg PUBLIC "-//W3C//DTD SVG 1.1//EN" "http://www.w3.org/Graphics/SVG/1.1/DTD/svg11.dtd">
<svg width="100%" height="100%" viewBox="0 0 1024 1024" version="1.1" xmlns="http://www.w3.org/2000/svg" xmlns:xlink="http://www.w3.org/1999/xlink" xml:space="preserve" xmlns:serif="http://www.serif.com/" style="fill-rule:evenodd;clip-rule:evenodd;stroke-linejoin:round;stroke-miterlimit:2;">
    <g transform="matrix(16.6313,0,0,16.6313,-78.3931,-153.247)">
        <path d="M37.814,70.436C53.577,69.252 65.998,56.083 65.998,40.011C65.998,23.16 52.343,9.5 35.498,9.5C19.722,9.5 6.744,21.482 5.161,36.846C12.799,28.779 23.601,24.58 33.018,26.944C33.245,27.001 33.465,27.067 33.686,27.132L33.686,27.132L33.686,27.132L33.821,27.172L33.826,27.167C41.289,21.099 49.289,22.749 47.779,23.526C41.611,26.697 43.186,32.606 44.738,35.597C44.886,35.845 45.026,36.099 45.163,36.354C45.172,36.368 45.18,36.383 45.189,36.398C45.199,36.416 45.209,36.433 45.219,36.449L45.212,36.444C48.519,42.669 48.764,51.029 45.153,59.434C43.366,63.592 40.829,67.312 37.814,70.436ZM34.299,70.5C34.404,70.288 34.506,70.075 34.606,69.86C38.766,60.977 38.465,52.054 34.603,45.74C29.234,52.724 22.604,58.811 16.493,63.876C17.479,64.663 18.514,65.39 19.594,66.051L32.303,51.453L23.357,68.01C24.299,68.419 25.265,68.782 26.254,69.096L34.081,52.724C34.88,54.484 35.348,60.35 31.297,70.236C32.283,70.372 33.285,70.46 34.299,70.5ZM14.596,62.231C13.617,61.309 12.698,60.322 11.848,59.279C15.415,56.551 19.781,53.01 23.733,49.267C22.351,51.73 18.692,56.97 14.596,62.231ZM10.81,57.931C20.029,47.68 25.127,39.421 25.127,39.421C25.377,38.968 25.576,38.63 25.752,38.362C25.119,38.115 24.467,37.891 23.788,37.706C17.778,36.061 11.087,37.175 5,40.327C5.012,41.557 5.098,42.771 5.252,43.963C8.554,41.994 14.154,39.178 18.07,38.995L6.459,49.366C6.748,50.267 7.079,51.149 7.448,52.011L20.61,40.52C19.04,43.166 14.681,49.891 9.561,56.072C9.955,56.708 10.372,57.328 10.81,57.931Z" style="fill:white;"/>
    </g>
</svg>
